<svg width="28" height="28" viewBox="0 0 28 28" fill="none" xmlns="http://www.w3.org/2000/svg">
<path d="M16.5833 2.15633C16.7607 2.05394 16.9619 2.00003 17.1667 2.00003C17.3715 2.00003 17.5726 2.05394 17.75 2.15633L24.75 6.19767C24.9274 6.30006 25.0746 6.44733 25.177 6.62468C25.2794 6.80203 25.3333 7.00321 25.3333 7.208V24.1667C25.3333 24.4761 25.2104 24.7728 24.9916 24.9916C24.7728 25.2104 24.4761 25.3333 24.1667 25.3333H17.1667C16.8572 25.3333 16.5605 25.2104 16.3417 24.9916C16.1229 24.7728 16 24.4761 16 24.1667V3.16667C16 2.96188 16.0539 2.7607 16.1563 2.58335C16.2587 2.406 16.406 2.25873 16.5833 2.15633ZM18.3333 5.18733V23H23V7.88117L18.3333 5.18733ZM3.16667 25.3333C2.85725 25.3333 2.5605 25.2104 2.34171 24.9916C2.12292 24.7728 2 24.4761 2 24.1667V3.16667C2 2.85725 2.12292 2.5605 2.34171 2.34171C2.5605 2.12292 2.85725 2 3.16667 2C3.47609 2 3.77283 2.12292 3.99162 2.34171C4.21042 2.5605 4.33333 2.85725 4.33333 3.16667V24.1667C4.33333 24.4761 4.21042 24.7728 3.99162 24.9916C3.77283 25.2104 3.47609 25.3333 3.16667 25.3333ZM10.1667 25.3333C9.85725 25.3333 9.5605 25.2104 9.34171 24.9916C9.12292 24.7728 9 24.4761 9 24.1667V3.16667C9 2.85725 9.12292 2.5605 9.34171 2.34171C9.5605 2.12292 9.85725 2 10.1667 2C10.4761 2 10.7728 2.12292 10.9916 2.34171C11.2104 2.5605 11.3333 2.85725 11.3333 3.16667V24.1667C11.3333 24.4761 11.2104 24.7728 10.9916 24.9916C10.7728 25.2104 10.4761 25.3333 10.1667 25.3333Z" fill="#FFFFE3"/>
</svg>
