<svg width="25" height="24" viewBox="0 0 25 24" fill="none" xmlns="http://www.w3.org/2000/svg">
<path d="M5.42847 2.56948C5.42826 2.38507 5.47663 2.20386 5.5687 2.04407C5.66077 1.88429 5.7933 1.75157 5.95296 1.65928C6.11261 1.56698 6.29376 1.51836 6.47817 1.51831C6.66259 1.51826 6.84376 1.56678 7.00347 1.65898L23.3385 11.091C23.4979 11.1832 23.6303 11.3157 23.7224 11.4753C23.8144 11.6348 23.8629 11.8158 23.8629 12C23.8629 12.1842 23.8144 12.3651 23.7224 12.5247C23.6303 12.6843 23.4979 12.8168 23.3385 12.909L7.00347 22.341C6.84387 22.4331 6.66283 22.4816 6.47855 22.4817C6.29426 22.4817 6.11322 22.4332 5.95361 22.3411C5.794 22.2489 5.66144 22.1164 5.56926 21.9569C5.47708 21.7973 5.42852 21.6163 5.42847 21.432V2.56948Z" fill="#000"/>
</svg>
