<svg width="28" height="28" viewBox="0 0 28 28" fill="none" xmlns="http://www.w3.org/2000/svg">
<path d="M14.5833 3.78816C14.406 3.68577 14.2048 3.63186 14 3.63186C13.7952 3.63186 13.594 3.68577 13.4166 3.78816L4.66665 8.83983V23.3333H9.91665V16.3333C9.91665 16.0239 10.0396 15.7272 10.2584 15.5084C10.4771 15.2896 10.7739 15.1667 11.0833 15.1667H16.9166C17.2261 15.1667 17.5228 15.2896 17.7416 15.5084C17.9604 15.7272 18.0833 16.0239 18.0833 16.3333V23.3333H23.3333V8.83983L14.5833 3.78816ZM12.25 1.7675C12.782 1.46031 13.3856 1.29858 14 1.29858C14.6144 1.29858 15.2179 1.46031 15.75 1.7675L24.5 6.81916C24.8547 7.02395 25.1492 7.31849 25.354 7.67319C25.5588 8.0279 25.6666 8.43025 25.6666 8.83983V24.5C25.6666 24.8094 25.5437 25.1062 25.3249 25.325C25.1061 25.5437 24.8094 25.6667 24.5 25.6667H16.9166C16.6072 25.6667 16.3105 25.5437 16.0917 25.325C15.8729 25.1062 15.75 24.8094 15.75 24.5V17.5H12.25V24.5C12.25 24.8094 12.1271 25.1062 11.9083 25.325C11.6895 25.5437 11.3927 25.6667 11.0833 25.6667H3.49998C3.19056 25.6667 2.89381 25.5437 2.67502 25.325C2.45623 25.1062 2.33331 24.8094 2.33331 24.5V8.83983C2.33332 8.43025 2.44114 8.0279 2.64594 7.67319C2.85073 7.31849 3.14528 7.02395 3.49998 6.81916L12.25 1.7675Z" fill="#000"/>
</svg>