<svg width="20" height="20" viewBox="0 0 20 20" fill="none" xmlns="http://www.w3.org/2000/svg">
<g clip-path="url(#clip0_53_1086)">
<path d="M0 5.9375C0 4.6943 0.49386 3.50201 1.37294 2.62294C2.25201 1.74386 3.4443 1.25 4.6875 1.25H15.3125C16.5557 1.25 17.748 1.74386 18.6271 2.62294C19.5061 3.50201 20 4.6943 20 5.9375V12.1875C20 13.4307 19.5061 14.623 18.6271 15.5021C17.748 16.3811 16.5557 16.875 15.3125 16.875H12.2625L13.535 18.1475C13.6271 18.2333 13.701 18.3368 13.7522 18.4518C13.8035 18.5668 13.831 18.691 13.8332 18.8168C13.8355 18.9427 13.8123 19.0678 13.7652 19.1845C13.718 19.3012 13.6478 19.4073 13.5588 19.4963C13.4698 19.5853 13.3637 19.6555 13.247 19.7027C13.1303 19.7498 13.0052 19.773 12.8793 19.7707C12.7535 19.7685 12.6293 19.741 12.5143 19.6897C12.3993 19.6385 12.2958 19.5646 12.21 19.4725L8.67375 15.9375L12.21 12.4025C12.2958 12.3104 12.3993 12.2365 12.5143 12.1853C12.6293 12.134 12.7535 12.1065 12.8793 12.1043C13.0052 12.102 13.1303 12.1252 13.247 12.1723C13.3637 12.2195 13.4698 12.2897 13.5588 12.3787C13.6478 12.4677 13.718 12.5738 13.7652 12.6905C13.8123 12.8072 13.8355 12.9323 13.8332 13.0582C13.831 13.184 13.8035 13.3082 13.7522 13.4232C13.701 13.5382 13.6271 13.6417 13.535 13.7275L12.2638 15H15.3125C16.0584 15 16.7738 14.7037 17.3012 14.1762C17.8287 13.6488 18.125 12.9334 18.125 12.1875V5.9375C18.125 5.19158 17.8287 4.47621 17.3012 3.94876C16.7738 3.42132 16.0584 3.125 15.3125 3.125H4.6875C3.94158 3.125 3.22621 3.42132 2.69876 3.94876C2.17132 4.47621 1.875 5.19158 1.875 5.9375V12.1875C1.875 12.9334 2.17132 13.6488 2.69876 14.1762C3.22621 14.7037 3.94158 15 4.6875 15H6.25V16.875H4.6875C3.4443 16.875 2.25201 16.3811 1.37294 15.5021C0.49386 14.623 0 13.4307 0 12.1875L0 5.9375Z" fill="#000"/>
</g>
<defs>
<clipPath id="clip0_53_1086">
<rect width="20" height="20" fill="white"/>
</clipPath>
</defs>
</svg>
