<svg width="28" height="28" viewBox="0 0 28 28" fill="none" xmlns="http://www.w3.org/2000/svg">
<path d="M12.2885 1.49216C6.24516 1.49216 1.31366 6.32216 1.31366 12.3177C1.31366 18.3132 6.24399 23.1432 12.2885 23.1432C14.8948 23.1432 17.2935 22.2448 19.18 20.7422L24.2585 25.8207C24.3661 25.9321 24.4949 26.021 24.6372 26.0821C24.7795 26.1433 24.9326 26.1754 25.0875 26.1768C25.2424 26.1781 25.3961 26.1486 25.5394 26.09C25.6828 26.0313 25.8131 25.9447 25.9226 25.8351C26.0322 25.7256 26.1188 25.5953 26.1775 25.4519C26.2361 25.3086 26.2656 25.1549 26.2643 25C26.2629 24.8451 26.2308 24.692 26.1696 24.5497C26.1085 24.4074 26.0196 24.2786 25.9082 24.171L20.8402 19.103C22.4092 17.19 23.2657 14.7918 23.2633 12.3177C23.2633 6.321 18.333 1.491 12.2885 1.491V1.49216ZM3.64699 12.3177C3.64699 7.644 7.49933 3.82433 12.2885 3.82433C17.0777 3.82433 20.93 7.644 20.93 12.3177C20.93 16.9913 17.0777 20.8098 12.2885 20.8098C7.49933 20.8098 3.64699 16.9925 3.64699 12.3177Z" fill="#FFFFE3"/>
</svg>