<svg width="20" height="20" viewBox="0 0 20 20" fill="none" xmlns="http://www.w3.org/2000/svg">
<g clip-path="url(#clip0_53_1068)">
<path d="M15.0608 1.15251C14.9822 1.0604 14.8874 0.986525 14.782 0.935285C14.6766 0.884045 14.5629 0.856493 14.4476 0.854272C14.3323 0.852051 14.2177 0.875207 14.1107 0.922358C14.0038 0.969509 13.9066 1.03969 13.8251 1.12871C13.7435 1.21774 13.6792 1.32378 13.636 1.44051C13.5928 1.55725 13.5716 1.68229 13.5736 1.80816C13.5757 1.93404 13.6009 2.05818 13.6479 2.17318C13.6948 2.28818 13.7625 2.39168 13.8469 2.47751L15.0127 3.75001H12.7807C12.1535 3.75002 11.5339 3.89998 10.9654 4.18936C10.397 4.47874 9.89355 4.90051 9.49046 5.42501L2.421 14.62C2.17912 14.9347 1.87701 15.1878 1.53591 15.3615C1.19481 15.5351 0.823005 15.625 0.446637 15.625H0V17.5H0.447782C1.075 17.5 1.6946 17.35 2.26303 17.0607C2.83146 16.7713 3.33491 16.3495 3.73801 15.825L10.8075 6.63001C11.0493 6.31528 11.3515 6.0622 11.6926 5.88857C12.0337 5.71494 12.4055 5.62498 12.7818 5.62501H15.0116L13.8469 6.89751C13.6952 7.07523 13.6126 7.31029 13.6165 7.55316C13.6204 7.79604 13.7106 8.02777 13.8679 8.19954C14.0253 8.3713 14.2376 8.46969 14.4601 8.47398C14.6826 8.47826 14.898 8.38811 15.0608 8.22251L18.3007 4.68751L15.0597 1.15251H15.0608ZM0.447782 4.37501H0V2.50001H0.447782C1.71783 2.50001 2.92146 3.11251 3.73801 4.17501L5.60014 6.59626L4.47896 8.05501L2.42215 5.38001C2.18014 5.06511 1.87785 4.81194 1.53654 4.6383C1.19523 4.46467 0.823198 4.3748 0.446637 4.37501H0.447782Z" fill="#000"/>
<path d="M9.375 13.4038L10.6 11.945L11.7963 13.37C12.0603 13.6847 12.39 13.9378 12.7623 14.1115C13.1346 14.2851 13.5404 14.375 13.9512 14.375H16.385L15.1137 13.1025C15.0216 13.0167 14.9478 12.9132 14.8965 12.7982C14.8453 12.6832 14.8177 12.559 14.8155 12.4332C14.8133 12.3073 14.8364 12.1822 14.8836 12.0655C14.9307 11.9488 15.0009 11.8427 15.09 11.7537C15.179 11.6647 15.285 11.5945 15.4018 11.5474C15.5185 11.5002 15.6435 11.4771 15.7694 11.4793C15.8953 11.4815 16.0194 11.509 16.1344 11.5603C16.2494 11.6115 16.3529 11.6854 16.4387 11.7775L19.975 15.3125L16.4387 18.8475C16.3529 18.9396 16.2494 19.0135 16.1344 19.0647C16.0194 19.116 15.8953 19.1435 15.7694 19.1458C15.6435 19.148 15.5185 19.1248 15.4018 19.0777C15.285 19.0305 15.179 18.9603 15.09 18.8713C15.0009 18.7823 14.9307 18.6762 14.8836 18.5595C14.8364 18.4428 14.8133 18.3177 14.8155 18.1919C14.8177 18.066 14.8453 17.9418 14.8965 17.8268C14.9478 17.7118 15.0216 17.6083 15.1137 17.5225L16.3862 16.25H13.95C13.2654 16.25 12.5891 16.1 11.9687 15.8107C11.3482 15.5213 10.7987 15.0995 10.3587 14.575L9.375 13.4038Z" fill="#000"/>
</g>
<defs>
<clipPath id="clip0_53_1068">
<rect width="20" height="20" fill="white"/>
</clipPath>
</defs>
</svg>
