<svg width="20" height="20" viewBox="0 0 20 20" fill="none" xmlns="http://www.w3.org/2000/svg">
<path d="M17.325 6.83754C17.238 6.75043 17.1346 6.68132 17.0208 6.63416C16.907 6.58701 16.7851 6.56274 16.6619 6.56274C16.5387 6.56274 16.4168 6.58701 16.303 6.63416C16.1892 6.68132 16.0858 6.75043 15.9988 6.83754L14.1613 8.67504L12.3238 6.83754C12.1455 6.67533 11.9115 6.58804 11.6705 6.59379C11.4296 6.59954 11.2 6.6979 11.0297 6.86843C10.8593 7.03895 10.7612 7.26856 10.7556 7.50954C10.7501 7.75053 10.8376 7.98439 11 8.16254L12.8363 10L10.9988 11.8375C10.9067 11.9234 10.8328 12.0269 10.7815 12.1419C10.7303 12.2569 10.7027 12.381 10.7005 12.5069C10.6983 12.6328 10.7215 12.7578 10.7686 12.8745C10.8158 12.9913 10.8859 13.0973 10.975 13.1863C11.064 13.2754 11.17 13.3455 11.2868 13.3927C11.4035 13.4398 11.5285 13.463 11.6544 13.4608C11.7803 13.4586 11.9044 13.431 12.0194 13.3798C12.1344 13.3285 12.2379 13.2547 12.3238 13.1625L14.1613 11.325L15.9988 13.1625C16.1765 13.3281 16.4115 13.4183 16.6544 13.414C16.8973 13.4097 17.129 13.3113 17.3008 13.1396C17.4726 12.9678 17.5709 12.7361 17.5752 12.4932C17.5795 12.2503 17.4894 12.0153 17.3238 11.8375L15.4875 10L17.325 8.16254C17.5006 7.98676 17.5992 7.74848 17.5992 7.50004C17.5992 7.25161 17.5006 7.01333 17.325 6.83754Z" fill="black"/>
<path d="M12.645 1.87511C12.6451 1.7105 12.6019 1.54875 12.5196 1.40615C12.4374 1.26355 12.3191 1.14512 12.1765 1.06276C12.034 0.980409 11.8723 0.937038 11.7077 0.937012C11.543 0.936985 11.3813 0.980305 11.2388 1.06261L2.58251 6.06261C1.54025 6.66691 0.780031 7.65971 0.468411 8.82348C0.15679 9.98726 0.319183 11.2271 0.920008 12.2714C1.31856 12.9626 1.89191 13.5368 2.58251 13.9364L11.2388 18.9364C11.3812 19.0186 11.5428 19.0619 11.7073 19.062C11.8719 19.062 12.0335 19.0187 12.176 18.9365C12.3185 18.8543 12.4368 18.7361 12.5192 18.5936C12.6015 18.4512 12.6449 18.2896 12.645 18.1251V15.7426C11.9739 15.5657 11.3393 15.2721 10.77 14.8751V16.5001L3.52126 12.3151C2.90871 11.9597 2.46201 11.376 2.27902 10.6918C2.09604 10.0077 2.19168 9.27888 2.54501 8.66511C2.77876 8.26011 3.11501 7.92261 3.52001 7.68761L10.77 3.50011V5.12511C11.3325 4.73386 11.965 4.43761 12.645 4.25761V1.87511Z" fill="black"/>
</svg>
