<svg width="17" height="20" viewBox="0 0 17 20" fill="none" xmlns="http://www.w3.org/2000/svg">
<path d="M12.1763 1.06258C12.3189 1.14492 12.4373 1.26336 12.5196 1.40599C12.6018 1.54863 12.6451 1.71042 12.645 1.87508V18.1251C12.6451 18.2897 12.6019 18.4514 12.5196 18.594C12.4374 18.7366 12.3191 18.8551 12.1765 18.9374C12.034 19.0198 11.8723 19.0632 11.7077 19.0632C11.543 19.0632 11.3813 19.0199 11.2388 18.9376L2.58251 13.9376C1.54025 13.3333 0.780031 12.3405 0.468411 11.1767C0.15679 10.0129 0.319183 8.7731 0.920008 7.72883C1.31856 7.03763 1.89191 6.46342 2.58251 6.06383L11.2388 1.06383C11.3813 0.981551 11.5429 0.938232 11.7075 0.938232C11.8721 0.938232 12.0337 0.980301 12.1763 1.06258ZM3.52126 7.68758C3.11622 7.92266 2.78003 8.26 2.54633 8.66583C2.31263 9.07167 2.18963 9.53177 2.18963 10.0001C2.18963 10.4684 2.31263 10.9285 2.54633 11.3343C2.78003 11.7402 3.11622 12.0775 3.52126 12.3126L10.7713 16.5001V3.50008L3.52126 7.68758ZM14.375 13.0501V6.95008C14.9333 7.24029 15.4012 7.67816 15.7277 8.21597C16.0543 8.75377 16.227 9.3709 16.227 10.0001C16.227 10.6293 16.0543 11.2464 15.7277 11.7842C15.4012 12.322 14.9333 12.7599 14.375 13.0501Z" fill="black"/>
</svg>